<svg xmlns="http://www.w3.org/2000/svg" xmlns:xlink="http://www.w3.org/1999/xlink" viewBox="0 0 430 430" width="430" height="430" preserveAspectRatio="xMidYMid meet" style="width: 100%; height: 100%; transform: translate3d(0px, 0px, 0px); content-visibility: visible;"><defs><clipPath id="__lottie_element_2275"><rect width="430" height="430" x="0" y="0"/></clipPath><clipPath id="__lottie_element_2277"><path d="M0,0 L430,0 L430,430 L0,430z"/></clipPath><g id="__lottie_element_2284"><g style="display: block;" transform="matrix(1,0,0,1,215,185)" opacity="1"><g opacity="1" transform="matrix(1,0,0,1,0,0)"><path fill="rgb(255,0,0)" fill-opacity="1" d=" M140,-105 C140,-105 50.4640007019043,-105 50.4640007019043,-105 C50.4640007019043,-105 47.42300033569336,-81.38500213623047 47.42300033569336,-81.38500213623047 C47.42300033569336,-81.38500213623047 -44.19499969482422,-79.36599731445312 -44.19499969482422,-79.36599731445312 C-44.19499969482422,-79.36599731445312 -50.62099838256836,-105 -50.62099838256836,-105 C-50.62099838256836,-105 -140,-105 -140,-105 C-151.04600524902344,-105 -160,-96.0459976196289 -160,-85 C-160,-85 -160,105 -160,105 C-160,105 -56.40800094604492,105.88099670410156 -56.40800094604492,105.88099670410156 C-56.40800094604492,105.88099670410156 -47.64799880981445,125.48300170898438 -47.64799880981445,125.48300170898438 C-47.64799880981445,125.48300170898438 49.5369987487793,125.7229995727539 49.5369987487793,125.7229995727539 C49.5369987487793,125.7229995727539 54.8129997253418,106.02100372314453 54.8129997253418,106.02100372314453 C54.8129997253418,106.02100372314453 160,105 160,105 C160,105 160,-85 160,-85 C160,-96.0459976196289 151.04600524902344,-105 140,-105z"/></g></g></g><mask id="__lottie_element_2284_1" mask-type="alpha"><use xmlns:ns1="http://www.w3.org/1999/xlink" ns1:href="#__lottie_element_2284"/></mask></defs><g clip-path="url(#__lottie_element_2275)"><g clip-path="url(#__lottie_element_2277)" transform="matrix(1,0,0,1,0,0)" opacity="1" style="display: block;"><g mask="url(#__lottie_element_2284_1)" style="display: block;"><g transform="matrix(1,0,0,1,162,247)" opacity="0.8"><g opacity="1" transform="matrix(1,0,0,1,0,0)"><path class="primary" fill="rgb(41,36,35)" fill-opacity="1" d=" M224.5,-219 C224.5,-219 508,90.5 508,90.5"/><path stroke-linecap="butt" stroke-linejoin="miter" fill-opacity="0" stroke-miterlimit="4" class="secondary" stroke="rgb(41,36,35)" stroke-opacity="1" stroke-width="6.299999999999997" d=" M224.5,-219 C224.5,-219 508,90.5 508,90.5"/></g></g></g><g transform="matrix(1,0,0,1,215,185)" opacity="1" style="display: block;"><g opacity="1" transform="matrix(1,0,0,1,0,0)"><path stroke-linecap="round" stroke-linejoin="round" fill-opacity="0" class="secondary" stroke="rgb(41,36,35)" stroke-opacity="1" stroke-width="6" d=" M-50,-105 C-50,-105 -50,-90 -50,-90 C-50,-84.47699737548828 -45.52299880981445,-80 -40,-80 C-40,-80 40,-80 40,-80 C45.52299880981445,-80 50,-84.47699737548828 50,-90 C50,-90 50,-105 50,-105"/></g><g opacity="1" transform="matrix(1,0,0,1,0,0)"><path stroke-linecap="round" stroke-linejoin="round" fill-opacity="0" class="primary" stroke="rgb(41,36,35)" stroke-opacity="1" stroke-width="6" d=" M-160,105 C-160,105 -160,-85 -160,-85 C-160,-96.0459976196289 -151.04600524902344,-105 -140,-105 C-140,-105 140,-105 140,-105 C151.04600524902344,-105 160,-96.0459976196289 160,-85 C160,-85 160,105 160,105"/></g></g><g transform="matrix(1,0,0,1,215,317.5)" opacity="1" style="display: block;"><g opacity="1" transform="matrix(1,0,0,1,0,0)"><path stroke-linecap="round" stroke-linejoin="round" fill-opacity="0" class="primary" stroke="rgb(41,36,35)" stroke-opacity="1" stroke-width="6" d=" M-185,-27.5 C-185,-27.5 -55,-27.5 -55,-27.5 C-55,-27.5 -55,-17.5 -55,-17.5 C-55,-11.97700023651123 -50.52299880981445,-7.5 -45,-7.5 C-45,-7.5 45,-7.5 45,-7.5 C50.52299880981445,-7.5 55,-11.97700023651123 55,-17.5 C55,-17.5 55,-27.5 55,-27.5 C55,-27.5 185,-27.5 185,-27.5 C185,-27.5 185,-2.5 185,-2.5 C185,14.069000244140625 171.56900024414062,27.5 155,27.5 C155,27.5 -155,27.5 -155,27.5 C-171.56900024414062,27.5 -185,14.069000244140625 -185,-2.5 C-185,-2.5 -185,-27.5 -185,-27.5z"/></g></g></g></g></svg>